<svg width="1439" height="83" viewBox="0 0 1439 83" fill="none" xmlns="http://www.w3.org/2000/svg">
<path d="M0 82H5L10 81L15 80L20 79L25 78L30 77L35 76L40 75L45 74L50 73L55 72H60L65 71L70 70L75 69L80 68L85 67L90 66L95 65L100 64L105 63L110 62L115 61L120 60L125 59H130L135 58L140 57L145 56L150 55L155 54L160 53L165 52H170L175 51L180 50L185 49L190 48L195 47H200L205 46L210 45L215 44L220 43L225 42H230L235 41L240 40L245 39H250L255 38L260 37L265 36H270L275 35L280 34L285 33H290L295 32L300 31H305L310 30L315 29H320L325 28L330 27H335L340 26L345 25H350L355 24L360 23H365L370 22H375L380 21L385 20H390L395 19H400L405 18H410L415 17L420 16H425L430 15H435L440 14H445L450 13H455L460 12H465L470 11H475H480L485 10H490L495 9H500H505L510 8H515L520 7H525H530L535 6H540H545L550 5H555H560L565 4H570H575L580 3H585H590H595L600 2H605H610H615H620L625 1H630H635H640H645H650L655 0H660H665H670H675H680H685H690H695H700H705H710H715H720H725H730H735H740H745H750H755H760H765H770H775H780H785H790L795 1H800H805H810H815H820L825 2H830H835H840L845 3H850H855H860L865 4H870H875L880 5H885H890H895L900 6H905L910 7H915H920L925 8H930H935L940 9H945L950 10H955L960 11H965L970 12H975L980 13H985L990 14H995L1000 15H1005L1010 16H1015L1020 17H1025L1030 18L1035 19H1040L1045 20H1050L1055 21L1060 22H1065L1070 23L1075 24H1080L1085 25L1090 26H1095L1100 27L1105 28H1110L1115 29L1120 30H1125L1130 31L1135 32L1140 33H1145L1150 34L1155 35L1160 36H1165L1170 37L1175 38L1180 39L1185 40H1190L1195 41L1200 42L1205 43H1210L1215 44L1220 45L1225 46L1230 47L1235 48H1240L1245 49L1250 50L1255 51L1260 52L1265 53L1270 54H1275L1280 55L1285 56L1290 57L1295 58L1300 59L1305 60H1310L1315 61L1320 62L1325 63L1330 64L1335 65L1340 66L1345 67H1350L1355 68L1360 69L1365 70L1370 71L1375 72L1380 73L1385 74L1390 75H1395L1400 76L1405 77L1410 78L1415 79L1420 80L1425 81L1430 82H1435H1439V83H0V82Z" fill="white"/>
</svg>
