<svg width="64" height="64" viewBox="0 0 64 64" fill="none" xmlns="http://www.w3.org/2000/svg">
<g clip-path="url(#clip0_2680_120)">
<path d="M17 56H9C8.73478 56 8.48043 55.8946 8.29289 55.7071C8.10536 55.5196 8 55.2652 8 55V47C8 46.7348 8.10536 46.4804 8.29289 46.2929C8.48043 46.1054 8.73478 46 9 46H17C17.2652 46 17.5196 46.1054 17.7071 46.2929C17.8946 46.4804 18 46.7348 18 47V55C18 55.2652 17.8946 55.5196 17.7071 55.7071C17.5196 55.8946 17.2652 56 17 56ZM10 54H16V48H10V54Z" fill="#6C4E3F"/>
<path d="M25 64H17C16.7348 64 16.4804 63.8946 16.2929 63.7071C16.1054 63.5196 16 63.2652 16 63V55C16 54.7348 16.1054 54.4804 16.2929 54.2929C16.4804 54.1054 16.7348 54 17 54H25C25.2652 54 25.5196 54.1054 25.7071 54.2929C25.8946 54.4804 26 54.7348 26 55V63C26 63.2652 25.8946 63.5196 25.7071 63.7071C25.5196 63.8946 25.2652 64 25 64ZM18 62H24V56H18V62Z" fill="#6C4E3F"/>
<path d="M25 48H17C16.7348 48 16.4804 47.8946 16.2929 47.7071C16.1054 47.5196 16 47.2652 16 47V39C16 38.7348 16.1054 38.4804 16.2929 38.2929C16.4804 38.1054 16.7348 38 17 38H25C25.2652 38 25.5196 38.1054 25.7071 38.2929C25.8946 38.4804 26 38.7348 26 39V47C26 47.2652 25.8946 47.5196 25.7071 47.7071C25.5196 47.8946 25.2652 48 25 48ZM18 46H24V40H18V46Z" fill="#6C4E3F"/>
<path d="M9 64H1C0.734784 64 0.48043 63.8946 0.292893 63.7071C0.105357 63.5196 0 63.2652 0 63V55C0 54.7348 0.105357 54.4804 0.292893 54.2929C0.48043 54.1054 0.734784 54 1 54H9C9.26522 54 9.51957 54.1054 9.70711 54.2929C9.89464 54.4804 10 54.7348 10 55V63C10 63.2652 9.89464 63.5196 9.70711 63.7071C9.51957 63.8946 9.26522 64 9 64ZM2 62H8V56H2V62Z" fill="#6C4E3F"/>
<path d="M9 48H1C0.734784 48 0.48043 47.8946 0.292893 47.7071C0.105357 47.5196 0 47.2652 0 47V39C0 38.7348 0.105357 38.4804 0.292893 38.2929C0.48043 38.1054 0.734784 38 1 38H9C9.26522 38 9.51957 38.1054 9.70711 38.2929C9.89464 38.4804 10 38.7348 10 39V47C10 47.2652 9.89464 47.5196 9.70711 47.7071C9.51957 47.8946 9.26522 48 9 48ZM2 46H8V40H2V46Z" fill="#6C4E3F"/>
<path d="M9 40C8.73478 40 8.48043 39.8946 8.29289 39.7071C8.10536 39.5196 8 39.2652 8 39V34H4C3.73478 34 3.48043 33.8946 3.29289 33.7071C3.10536 33.5196 3 33.2652 3 33V1C3 0.734784 3.10536 0.48043 3.29289 0.292893C3.48043 0.105357 3.73478 0 4 0C4.26522 0 4.51957 0.105357 4.70711 0.292893C4.89464 0.48043 5 0.734784 5 1V32H9C9.26522 32 9.51957 32.1054 9.70711 32.2929C9.89464 32.4804 10 32.7348 10 33V39C10 39.2652 9.89464 39.5196 9.70711 39.7071C9.51957 39.8946 9.26522 40 9 40Z" fill="#6C4E3F"/>
<path d="M63 61H31C30.7348 61 30.4804 60.8946 30.2929 60.7071C30.1054 60.5196 30 60.2652 30 60V56H25C24.7348 56 24.4804 55.8946 24.2929 55.7071C24.1054 55.5196 24 55.2652 24 55C24 54.7348 24.1054 54.4804 24.2929 54.2929C24.4804 54.1054 24.7348 54 25 54H31C31.2652 54 31.5196 54.1054 31.7071 54.2929C31.8946 54.4804 32 54.7348 32 55V59H63C63.2652 59 63.5196 59.1054 63.7071 59.2929C63.8946 59.4804 64 59.7348 64 60C64 60.2652 63.8946 60.5196 63.7071 60.7071C63.5196 60.8946 63.2652 61 63 61Z" fill="#6C4E3F"/>
</g>
<defs>
<clipPath id="clip0_2680_120">
<rect width="64" height="64" fill="white"/>
</clipPath>
</defs>
</svg>
