<svg width="65" height="64" viewBox="0 0 65 64" fill="none" xmlns="http://www.w3.org/2000/svg">
<g clip-path="url(#clip0_40_1938)">
<path d="M58.9779 15.3271H50.8639C49.4818 15.3271 48.2352 14.5611 47.6105 13.3282L45.9487 10.0482C45.003 8.18135 43.1155 7.02173 41.0229 7.02173H23.9035C21.7869 7.02173 19.8897 8.20073 18.9524 10.0985L17.3738 13.2949C16.802 14.4526 15.6891 15.2039 14.421 15.3121V13.5592C14.421 12.5786 13.6233 11.7807 12.6425 11.7807H7.49687C6.51625 11.7807 5.71838 12.5786 5.71838 13.5592V15.3359C2.81425 15.4941 0.5 17.9064 0.5 20.8494V51.4562C0.5 54.5011 2.97712 56.9785 6.02212 56.9785H7.83913C8.35688 56.9785 8.77662 56.5589 8.77662 56.041C8.77662 55.5231 8.35688 55.1035 7.83913 55.1035H6.02212C4.01112 55.1035 2.375 53.4674 2.375 51.4562V20.8494C2.375 18.8382 4.01112 17.2021 6.02212 17.2021H14.1038C16.2205 17.2021 18.1176 16.0231 19.0549 14.1252L20.6335 10.9289C21.2525 9.67548 22.5055 8.89673 23.9035 8.89673H41.023C42.4051 8.89673 43.6516 9.6626 44.2762 10.8956L45.938 14.1756C46.8839 16.0425 48.7714 17.2021 50.864 17.2021H58.978C60.989 17.2021 62.6251 18.8382 62.6251 20.8494V51.4562C62.6251 53.4674 60.989 55.1035 58.978 55.1035H11.7765C11.2587 55.1035 10.839 55.5231 10.839 56.041C10.839 56.5589 11.2587 56.9785 11.7765 56.9785H58.9779C62.0228 56.9785 64.5 54.5012 64.5 51.4562V20.8494C64.5 17.8045 62.0229 15.3271 58.9779 15.3271ZM7.59338 15.3271V13.6557H12.546V15.3271H7.59338Z" fill="#6C4E3F"/>
<path d="M16.5808 35.4777C16.5808 44.2561 23.7222 51.3977 32.5001 51.3977C41.2779 51.3977 48.4193 44.256 48.4193 35.4777C48.4193 26.6995 41.2781 19.5579 32.5001 19.5579C23.7221 19.5579 16.5808 26.6995 16.5808 35.4777ZM32.5001 21.4329C40.2442 21.4329 46.5443 27.7334 46.5443 35.4777C46.5443 43.2222 40.2441 49.5227 32.5001 49.5227C24.7561 49.5227 18.4558 43.2222 18.4558 35.4777C18.4558 27.7334 24.7559 21.4329 32.5001 21.4329Z" fill="#6C4E3F"/>
<path d="M32.5 47.0095C38.8584 47.0095 44.0312 41.8363 44.0312 35.4777C44.0312 33.8769 43.7091 32.3269 43.074 30.8707C42.8669 30.396 42.3144 30.1792 41.8399 30.3863C41.3652 30.5932 41.1484 31.1458 41.3554 31.6204C41.8867 32.8387 42.1562 34.1365 42.1562 35.4777C42.1562 40.8025 37.8245 45.1345 32.5 45.1345C27.1755 45.1345 22.8438 40.8025 22.8438 35.4777C22.8438 30.1529 27.1755 25.8209 32.5 25.8209C35 25.8209 37.371 26.7727 39.1763 28.5009C39.5503 28.8587 40.1438 28.846 40.5018 28.472C40.8599 28.098 40.8469 27.5045 40.4729 27.1465C38.3169 25.0827 35.4854 23.946 32.5 23.946C26.1416 23.946 20.9688 29.1192 20.9688 35.4778C20.9688 41.8364 26.1416 47.0095 32.5 47.0095Z" fill="#6C4E3F"/>
<path d="M7.94804 19.5579C6.26117 19.5579 4.88892 20.9302 4.88892 22.6171C4.88892 24.304 6.26129 25.6765 7.94804 25.6765C9.63479 25.6765 11.0073 24.3041 11.0073 22.6171C11.0073 20.9301 9.63492 19.5579 7.94804 19.5579ZM7.94804 23.8014C7.29504 23.8014 6.76392 23.2701 6.76392 22.617C6.76392 21.964 7.29517 21.4327 7.94804 21.4327C8.60092 21.4327 9.13229 21.964 9.13229 22.617C9.13229 23.2701 8.60104 23.8014 7.94804 23.8014Z" fill="#6C4E3F"/>
<path d="M37.1445 13.6555C37.6622 13.6555 38.082 13.2359 38.082 12.718C38.082 12.2001 37.6622 11.7805 37.1445 11.7805H27.8553C27.3376 11.7805 26.9178 12.2001 26.9178 12.718C26.9178 13.2359 27.3376 13.6555 27.8553 13.6555H37.1445Z" fill="#6C4E3F"/>
<path d="M58.2228 22.3625C58.7406 22.3625 59.1603 21.9429 59.1603 21.425C59.1603 20.9072 58.7406 20.4875 58.2228 20.4875H56.7478C56.2301 20.4875 55.8103 20.9072 55.8103 21.425C55.8103 21.9429 56.2301 22.3625 56.7478 22.3625H58.2228Z" fill="#6C4E3F"/>
</g>
<defs>
<clipPath id="clip0_40_1938">
<rect width="64" height="64" fill="white" transform="translate(0.5)"/>
</clipPath>
</defs>
</svg>
