<svg width="173" height="84" viewBox="0 0 173 84" fill="none" xmlns="http://www.w3.org/2000/svg">
<g clip-path="url(#clip0_40_2376)">
<path d="M75.2188 65.9883C74.7364 66.0287 73.9387 66.1779 73.5856 66.5538C69.8809 70.5278 64.6124 72.5319 59.1642 72.1373C56.3171 71.9322 53.552 71.056 51.1085 69.6112C48.5641 68.1074 46.3603 66.125 44.1501 64.1955C41.962 62.2847 39.7266 60.3645 37.1254 59.0098C36.5957 58.7333 36.0566 58.4909 35.508 58.2766C40.2972 54.8463 45.1212 51.4658 49.9893 48.1475C58.1584 42.5765 66.438 37.1639 74.8215 31.9098C78.5735 29.5578 82.3507 27.243 86.1468 24.9531C87.0296 24.8443 87.9093 24.72 88.7889 24.5771C96.5167 23.3125 104.03 20.7119 110.862 16.9337C117.54 13.2425 123.537 8.36436 128.361 2.49819C128.963 1.76802 129.543 1.01922 130.108 0.257982C130.294 0.00941549 129.632 9.42389e-05 129.569 0.00320132C129.124 0.0156297 128.604 0.127485 128.21 0.332552C119.337 4.92793 110.553 9.68487 101.87 14.6158C96.3528 17.7478 90.8762 20.9574 85.4374 24.2229C79.2924 24.8257 73.0528 24.4839 67.0276 23.1479C58.1238 21.1749 49.6614 16.2191 40.3224 16.5546C36.5011 16.6913 32.6073 17.8441 29.3787 19.8761C26.5064 21.6844 24.003 24.3534 23.2495 27.7122C23.0697 28.52 22.9878 29.3372 23.0004 30.1637C23.0067 30.5272 25.447 30.1823 25.4376 29.5205C25.3367 22.5451 32.5789 17.6483 39.1243 17.4961C43.8884 17.3873 48.5673 18.8321 53.0224 20.3422C57.2252 21.7652 61.3839 23.3063 65.7443 24.2105C71.6749 25.444 77.779 25.7299 83.8105 25.1954C81.2472 26.7428 78.687 28.3025 76.1426 29.8809C67.6991 35.1163 59.3629 40.5103 51.1338 46.0657C45.4396 49.9092 39.7991 53.8334 34.2121 57.826C32.3141 57.2574 30.3277 57.0244 28.3099 57.1114C21.9599 57.3848 15.7802 60.4857 11.3914 64.9381C6.1544 70.2419 3.02987 77.0744 0.0188487 83.7422C-0.138797 84.0933 0.721947 83.9877 0.838604 83.9721C1.34622 83.9038 1.91375 83.7515 2.32047 83.4253C10.0262 77.2484 17.8548 71.2144 25.797 65.3358C28.4959 63.338 31.2137 61.365 33.9378 59.4013C34.6346 59.7089 35.3156 60.0662 35.9746 60.4639C38.5442 62.0175 40.7607 64.0588 43.0119 66.0163C45.2095 67.9303 47.4859 69.8318 50.1248 71.1306C52.6093 72.3516 55.3492 72.9948 58.1175 73.1222C64.5336 73.4174 71.3943 71.0591 75.7863 66.3519C76.1426 65.9697 75.4679 65.9635 75.2188 65.9821V65.9883ZM100.278 16.6292C108.86 11.6983 117.54 6.932 126.312 2.33351C126.381 2.29623 126.454 2.25894 126.523 2.22166C122.172 7.67459 116.784 12.2917 110.758 15.8773C104.304 19.7208 97.1378 22.3711 89.7064 23.6419C89.0853 23.7475 88.461 23.8407 87.8367 23.9277C91.9607 21.4545 96.1068 19.0186 100.275 16.623L100.278 16.6292ZM26.6987 63.251C18.8512 68.9991 11.1171 74.8963 3.4965 80.9365C5.88325 75.7135 8.47179 70.4967 12.2805 66.1437C16.0892 61.7938 21.5248 58.0901 27.5595 58.0435C29.3346 58.0311 31.0529 58.3387 32.6861 58.9073C30.684 60.3459 28.6882 61.7938 26.6987 63.251Z" fill="#6C4E3F"/>
<path d="M172.202 59.6094C163.756 59.1433 155.281 59.1961 146.843 59.7865C146.998 59.5503 147.143 59.3111 147.269 59.0594C148.332 56.9559 147.83 54.3491 145.8 53.0099C143.842 51.7205 141.234 51.8012 139.015 52.2021C136.53 52.6495 134.374 53.8644 132.044 54.7499C130.887 55.188 129.496 55.5639 128.2 55.5981C127.759 55.6105 127.103 55.5297 126.586 55.3526C126.189 55.2159 125.814 55.0015 125.473 54.7343C130.704 49.6884 136.729 45.4504 143.278 42.2283C145.223 41.2713 147.209 40.4045 149.233 39.6215C149.596 39.4817 150.037 39.0529 149.921 38.6272C149.804 38.1984 149.208 38.0524 148.82 38.1052C139.516 39.3543 130.212 40.6064 120.908 41.8555C113.271 42.8808 105.635 43.9061 98.0018 44.9315C98.6702 43.7384 99.285 42.5173 99.8431 41.2713C101.104 38.4594 102.075 35.5263 102.731 32.5218C102.813 32.1489 102.268 32.1148 102.022 32.121C101.539 32.1303 100.943 32.2763 100.565 32.587C96.9991 35.5015 93.8588 38.9006 91.2672 42.6851C90.501 43.8005 89.7884 44.9532 89.1169 46.1246C85.1631 46.6559 81.2125 47.1872 77.2588 47.7185C76.7417 47.7869 75.985 48.0603 75.9093 48.6631C75.8368 49.2379 76.5651 49.4678 77.0223 49.4057C80.7301 48.9086 84.4348 48.4083 88.1426 47.9112C86.9792 50.1576 85.9829 52.4879 85.1884 54.8866C84.7564 56.1884 84.3875 57.509 84.0722 58.8419C83.7853 59.0718 83.4984 59.2955 83.2083 59.5161C81.3071 60.9609 79.3807 62.2007 77.3061 63.3068C77.0602 61.2716 77.4858 59.2116 78.5199 57.4126C78.7217 57.0615 77.9493 57.0087 77.8105 57.0118C77.3376 57.0211 76.7196 57.161 76.3539 57.4779C74.9572 58.6897 73.5604 59.8983 72.1668 61.1101C72.2835 59.7802 72.4002 58.4504 72.5168 57.1206C72.5893 56.2848 70.6535 56.9217 70.3508 57.1858C68.3235 58.9693 66.2961 60.7528 64.2688 62.5331C64.0418 60.9516 64.294 59.339 65.0034 57.888C65.2557 57.7948 65.5142 57.7016 65.7917 57.6053C66.0439 57.5183 66.8195 57.1361 66.479 56.7819C66.1416 56.4308 65.2462 56.7167 64.8868 56.8378C64.808 56.8658 64.7323 56.8938 64.6566 56.9217C64.5557 56.9186 64.4769 56.9217 64.4454 56.9217C64.0071 56.9621 63.241 57.1175 62.9793 57.5214C62.9635 57.5462 62.9446 57.5711 62.9288 57.5991C59.303 59.1713 56.0334 61.5606 53.4953 64.5558C52.6661 65.5346 51.9315 66.5816 51.2631 67.6753C51.0834 67.9705 51.7139 68.0637 51.8369 68.0699C52.3161 68.0917 52.7702 67.9457 53.199 67.7499C56.3834 66.2989 59.2935 64.2575 61.737 61.775C61.7181 62.7258 61.8568 63.6796 62.1627 64.5869C62.2636 64.8883 62.8027 64.8541 63.0329 64.8324C63.4554 64.7951 64.0103 64.6677 64.335 64.3818C66.1952 62.7444 68.0586 61.107 69.9188 59.4726C69.8022 60.7931 69.6887 62.1105 69.572 63.4311C69.4995 64.2669 71.4354 63.6268 71.738 63.3658C72.8384 62.4119 73.9388 61.455 75.0391 60.5011C74.7207 61.9086 74.7049 63.3782 75.0076 64.7982C75.0644 65.0623 75.5373 65.0623 75.7265 65.0592C76.1584 65.0499 76.5715 64.9194 76.9561 64.7329C79.2987 63.6113 81.5373 62.2939 83.6529 60.8056C83.5583 61.3089 83.4669 61.8154 83.388 62.3218C83.2651 63.1048 85.037 62.5487 85.3271 62.3964C90.0974 59.9263 94.5809 56.9093 98.645 53.4169C97.1915 56.4743 95.7411 59.5317 94.2876 62.5859C94.1647 62.8469 94.5651 62.9526 94.729 62.9743C95.1421 63.0302 95.5614 62.9184 95.9492 62.7848C100.351 61.2841 104.752 59.7802 109.15 58.2795C109.431 60.0692 109.712 61.8589 109.992 63.6486C108.838 64.2451 107.688 64.8386 106.534 65.4351C106.25 65.5812 105.764 66.0162 106.278 66.215C106.792 66.4139 107.533 66.187 107.993 65.9478C109.324 65.2611 110.658 64.5714 111.988 63.8847C112.19 63.7791 112.521 63.5771 112.477 63.3068C112.149 61.2188 111.821 59.1278 111.493 57.0398C111.408 56.4992 110.043 56.9031 109.825 56.9776C105.597 58.4193 101.372 59.8641 97.1442 61.3058C98.9981 57.4002 100.855 53.4977 102.709 49.5921C102.905 49.1789 102.009 49.1913 101.848 49.2068C101.325 49.2534 100.757 49.4305 100.382 49.8065C96.6397 53.5505 92.4369 56.872 87.8935 59.6249C87.2787 59.9977 86.6545 60.3582 86.027 60.7124C86.1531 60.035 86.2856 59.3608 86.4401 58.6897C87.8841 57.509 89.2588 56.2475 90.5578 54.9145C92.976 52.4227 95.1232 49.6698 96.9424 46.7212C99.6066 46.3638 102.271 46.0065 104.935 45.6492C114.239 44.4002 123.543 43.148 132.848 41.899C136.196 41.4484 139.541 41.001 142.89 40.5505C137.527 43.1169 132.476 46.3266 127.904 50.0892C126.182 51.5061 124.527 52.9975 122.941 54.5572C122.736 54.7592 122.607 55.1662 122.837 55.4055C124.735 57.3691 127.453 57.5276 130.013 57.018C131.35 56.7508 132.646 56.2879 133.901 55.7752C134.985 55.334 136.026 54.7965 137.117 54.377C137.123 54.377 137.129 54.3739 137.136 54.3708C137.189 54.3522 137.246 54.3335 137.3 54.3149C137.432 54.2714 137.561 54.2279 137.694 54.1875C137.962 54.1067 138.23 54.0321 138.501 53.9669C138.753 53.9047 139.008 53.8519 139.264 53.8022C139.276 53.8022 139.283 53.7991 139.289 53.796C139.327 53.7898 139.365 53.7836 139.403 53.7774C139.56 53.7525 139.715 53.7307 139.872 53.7121C140.125 53.681 140.38 53.6593 140.632 53.6469C140.768 53.6406 140.9 53.6344 141.036 53.6344C141.08 53.6344 141.121 53.6344 141.165 53.6344C141.184 53.6344 141.209 53.6344 141.234 53.6375C141.474 53.6531 141.714 53.6624 141.956 53.6935C142.083 53.709 142.209 53.7276 142.332 53.7463C142.332 53.7463 142.366 53.7525 142.395 53.7587C142.442 53.7711 142.578 53.7991 142.571 53.7991C143.407 54.0073 144.069 54.3335 144.595 54.9767C145.21 55.7286 145.481 56.7322 145.317 57.7171C145.172 58.5778 144.712 59.3328 144.141 59.9915C136.439 60.6347 128.777 61.7191 121.201 63.2353C118.026 63.8692 114.681 64.562 112.048 66.5475C110.888 67.4237 109.932 68.5391 109.497 69.9311C109.034 71.4194 109.324 72.9822 110.14 74.2965C112.168 77.5528 116.367 78.199 119.918 77.8573C123.695 77.4968 127.485 76.5492 131.095 75.4213C138.321 73.1687 145.172 69.7509 151.261 65.2984C151.995 64.7609 152.714 64.2078 153.427 63.6423C153.874 63.285 154.111 62.5269 153.338 62.3436C150.595 61.688 147.748 61.5295 144.964 61.8806C145.084 61.7781 145.201 61.6724 145.314 61.5668C152.96 60.9827 160.641 60.8335 168.305 61.1411C169.317 61.1815 170.329 61.2312 171.338 61.2872C171.912 61.3182 172.656 61.1194 172.927 60.5663C173.183 60.0506 172.704 59.6342 172.199 59.6062L172.202 59.6094ZM54.9047 65.5283C56.6924 63.1545 58.9625 61.1194 61.4879 59.6C59.6403 61.9303 57.4144 63.9375 54.9047 65.5283ZM94.13 47.6968C92.1311 50.7852 89.7695 53.6469 87.099 56.1947C87.7926 53.796 88.6755 51.447 89.7411 49.182C89.9934 48.6444 90.2582 48.1131 90.5325 47.588C91.8662 47.4078 93.203 47.2307 94.5367 47.0505C94.4011 47.268 94.2656 47.4824 94.1268 47.6968H94.13ZM95.6024 45.2515C94.7322 45.3696 93.862 45.4845 92.995 45.6026C92.5031 45.6679 92.0081 45.7362 91.5162 45.8015C93.1053 43.0331 94.9718 40.42 97.0906 38.0151C97.9292 37.0644 98.8058 36.1478 99.7201 35.2685C98.7585 38.7422 97.3712 42.1009 95.6056 45.2546L95.6024 45.2515ZM137.139 54.3708C137.192 54.3522 137.331 54.2962 137.139 54.3708V54.3708ZM150.513 63.633C145.34 67.5386 139.595 70.6643 133.481 72.9077C130.265 74.0852 126.826 75.0236 123.414 75.6792C120.195 76.2975 116.399 76.9127 113.637 74.6942C112.593 73.8553 111.777 72.5659 111.742 71.2143C111.711 69.9777 112.221 68.943 113.035 68.1197C113.268 67.8804 113.309 67.8462 113.606 67.6194C113.877 67.4112 114.16 67.2217 114.45 67.0446C114.479 67.0291 114.491 67.0197 114.498 67.0135C114.57 66.9731 114.643 66.9327 114.715 66.8923C114.864 66.8147 115.012 66.737 115.16 66.6624C115.485 66.504 115.813 66.3579 116.147 66.2243C116.289 66.1653 116.434 66.1125 116.579 66.0565C116.566 66.0628 116.885 65.9478 116.916 65.9385C117.26 65.8235 117.607 65.7179 117.957 65.6216C118.694 65.4165 119.442 65.258 120.189 65.1027C127.409 63.6019 134.717 62.5238 142.064 61.8433C141.398 62.3125 140.702 62.7258 140.043 63.0769C139.664 63.2788 139.154 63.6889 139.406 64.1705C139.639 64.6149 140.352 64.6894 140.787 64.5372C143.902 63.4435 147.253 63.1141 150.507 63.6361L150.513 63.633Z" fill="#6C4E3F"/>
</g>
<defs>
<clipPath id="clip0_40_2376">
<rect width="173" height="84" fill="white"/>
</clipPath>
</defs>
</svg>
